HIERARCHY
ROOT joint_Root
{
	OFFSET 0.0 0.0 0.0
	CHANNELS 6 Xposition Yposition Zposition Zrotation Xrotation Yrotation 
	JOINT Hips
	{
		OFFSET -0.726466 93.3139 -2.00062
		CHANNELS 6 Xposition Yposition Zposition Zrotation Xrotation Yrotation 
		JOINT Spine
		{
			OFFSET 15.7357 0.0 0.0
			CHANNELS 6 Xposition Yposition Zposition Zrotation Xrotation Yrotation 
			JOINT Chest
			{
				OFFSET 8.98455 -0.406207 0.0
				CHANNELS 6 Xposition Yposition Zposition Zrotation Xrotation Yrotation 
				JOINT Neck
				{
					OFFSET 16.3773 0.0 0.0
					CHANNELS 6 Xposition Yposition Zposition Zrotation Xrotation Yrotation 
					JOINT Head
					{
						OFFSET 6.45672 0.0 0.0
						CHANNELS 6 Xposition Yposition Zposition Zrotation Xrotation Yrotation 
						End Site
						{
							OFFSET 0.0 0.0 0.0
						}
					}
				}
				JOINT Shoulder_L
				{
					OFFSET 12.9942 -0.242716 4.98039
					CHANNELS 6 Xposition Yposition Zposition Zrotation Xrotation Yrotation 
					JOINT UpperArm_L
					{
						OFFSET 5.34809 0.0 0.0
						CHANNELS 6 Xposition Yposition Zposition Zrotation Xrotation Yrotation 
						JOINT LowerArm_L
						{
							OFFSET 24.3286 1.87007e-05 0.0
							CHANNELS 6 Xposition Yposition Zposition Zrotation Xrotation Yrotation 
							JOINT Hand_L
							{
								OFFSET 22.2916 0.0 0.0
								CHANNELS 6 Xposition Yposition Zposition Zrotation Xrotation Yrotation 
								End Site
								{
									OFFSET 0.0 0.0 0.0
								}
							}
						}
					}
				}
				JOINT Shoulder_R
				{
					OFFSET 12.9945 -0.242716 -4.98039
					CHANNELS 6 Xposition Yposition Zposition Zrotation Xrotation Yrotation 
					JOINT UpperArm_R
					{
						OFFSET -5.34813 0.0 0.0
						CHANNELS 6 Xposition Yposition Zposition Zrotation Xrotation Yrotation 
						JOINT LowerArm_R
						{
							OFFSET -24.3289 0.000322201 0.0
							CHANNELS 6 Xposition Yposition Zposition Zrotation Xrotation Yrotation 
							JOINT Hand_R
							{
								OFFSET -22.2915 -0.000108084 0.0
								CHANNELS 6 Xposition Yposition Zposition Zrotation Xrotation Yrotation 
								End Site
								{
									OFFSET 0.0 0.0 0.0
								}
							}
						}
					}
				}
			}
		}
		JOINT UpperLeg_L
		{
			OFFSET -2.19248 -6.46944 0.0
			CHANNELS 6 Xposition Yposition Zposition Zrotation Xrotation Yrotation 
			JOINT LowerLeg_L
			{
				OFFSET 39.0811 0.0 -1.23785e-05
				CHANNELS 6 Xposition Yposition Zposition Zrotation Xrotation Yrotation 
				JOINT Foot_L
				{
					OFFSET 40.9854 0.0 -1.26872e-05
					CHANNELS 6 Xposition Yposition Zposition Zrotation Xrotation Yrotation 
					JOINT Toes_L
					{
						OFFSET 11.7543 0.0 0.0
						CHANNELS 6 Xposition Yposition Zposition Zrotation Xrotation Yrotation 
						End Site
						{
							OFFSET 0.0 0.0 0.0
						}
					}
				}
			}
		}
		JOINT UpperLeg_R
		{
			OFFSET -2.19251 6.46944 0.0
			CHANNELS 6 Xposition Yposition Zposition Zrotation Xrotation Yrotation 
			JOINT LowerLeg_R
			{
				OFFSET -39.0811 -0.00228153 -0.0401928
				CHANNELS 6 Xposition Yposition Zposition Zrotation Xrotation Yrotation 
				JOINT Foot_R
				{
					OFFSET -40.9854 0.0 0.0
					CHANNELS 6 Xposition Yposition Zposition Zrotation Xrotation Yrotation 
					JOINT Toes_R
					{
						OFFSET -11.7543 0.0 0.0
						CHANNELS 6 Xposition Yposition Zposition Zrotation Xrotation Yrotation 
						End Site
						{
							OFFSET 0.0 0.0 0.0
						}
					}
				}
			}
		}
	}
}
MOTION
Frames:	4
Frame Time:	0.0333333
0.000000 0.000000 0.000000 0.000000 0.000000 -0.000000 -1.400980 91.666900 -0.394867 87.879300 -1.112980 6.794270 15.735700 0.000005 -0.000001 85.673300 83.429700 -84.914700 8.984550 -0.406207 -0.000000 5.344960 -1.005190 1.562370 16.377300 -0.000001 -0.000001 8.337480 -2.368600 1.134510 6.456720 -0.000001 -0.000000 1.955040 -1.100740 -1.695150 12.994200 -0.242716 4.980390 -90.309600 0.979089 -72.451900 5.348090 -0.000007 -0.000001 -65.037700 38.115300 -13.392800 24.328600 0.000019 0.000005 4.414680 7.876180 -29.396500 22.291600 -0.000001 0.000005 3.586260 5.620770 -12.672800 12.994500 -0.242716 -4.980390 87.808400 6.158090 -70.366600 -5.348130 -0.000001 -0.000004 -64.331000 30.014100 -13.959000 -24.328900 0.000322 -0.000009 -0.406229 -0.970889 -22.651700 -22.291500 -0.000108 -0.000004 6.704130 5.581890 -10.313700 -2.192480 -6.469440 -0.000000 -167.185000 -17.919100 0.193285 39.081100 -0.000007 -0.000012 -0.215661 0.488326 23.828200 40.985400 -0.000006 -0.000013 -7.402740 -0.756873 -64.482600 11.754300 -0.000000 0.000003 -0.000123 -0.001230 -16.624500 -2.192510 6.469440 -0.000001 173.075000 22.349400 -178.201000 -39.081100 -0.002282 -0.040193 -0.005533 0.020861 22.986200 -40.985400 0.000008 0.000006 -1.772290 1.035360 -65.471300 -11.754300 -0.000006 -0.000006 -0.004283 -0.054350 -18.784100
0.000000 0.000000 0.000000 0.000000 0.000000 -0.000000 -1.392360 91.665000 -0.423200 87.869400 -1.129410 6.863220 15.735700 0.000005 -0.000001 85.633100 83.396200 -84.902800 8.984550 -0.406207 -0.000000 5.410750 -1.018390 1.507040 16.377300 -0.000001 -0.000001 8.387050 -2.329080 1.096170 6.456720 -0.000001 -0.000000 1.947250 -1.136880 -1.737500 12.994200 -0.242716 4.980390 -90.279000 0.879958 -72.409000 5.348090 -0.000007 -0.000001 -64.660300 38.738100 -13.518000 24.328600 0.000019 0.000005 4.488730 7.723350 -30.291100 22.291600 -0.000001 0.000005 3.637740 5.625340 -12.994000 12.994500 -0.242716 -4.980390 87.807200 6.169720 -70.390100 -5.348130 -0.000001 -0.000004 -63.800400 29.894400 -14.537100 -24.328900 0.000322 -0.000009 -0.606550 -1.421230 -23.078000 -22.291500 -0.000108 -0.000004 7.280470 5.583930 -10.424500 -2.192480 -6.469440 -0.000000 -167.162000 -17.927700 0.225417 39.081100 -0.000007 -0.000012 -0.217201 0.490838 23.870200 40.985400 -0.000006 -0.000013 -7.400020 -0.797800 -64.484900 11.754300 -0.000000 0.000003 -0.000121 -0.001209 -16.623700 -2.192510 6.469440 -0.000001 173.057000 22.308800 -178.154000 -39.081100 -0.002282 -0.040193 -0.007298 0.025020 22.987000 -40.985400 0.000008 0.000006 -1.846490 1.034080 -65.444400 -11.754300 -0.000006 -0.000006 -0.004135 -0.052839 -18.722500
0.000000 0.000000 0.000000 0.000000 0.000000 -0.000000 -1.359690 91.672300 -0.447024 87.886300 -1.255950 6.858010 15.735700 0.000005 -0.000001 85.672000 83.392700 -84.973500 8.984550 -0.406207 -0.000000 5.418030 -1.009270 1.443240 16.377300 -0.000001 -0.000001 8.414800 -2.267720 1.136710 6.456720 -0.000001 -0.000000 1.945490 -1.122450 -1.919840 12.994200 -0.242716 4.980390 -90.239900 0.752008 -72.306400 5.348090 -0.000007 -0.000001 -63.687000 40.187500 -13.835100 24.328600 0.000019 0.000005 4.525570 7.391440 -31.601800 22.291600 -0.000001 0.000005 3.838180 5.631830 -13.475100 12.994500 -0.242716 -4.980390 87.822700 6.128830 -70.399100 -5.348130 -0.000001 -0.000004 -62.792400 29.670700 -15.509500 -24.328900 0.000322 -0.000009 -0.632757 -1.429330 -23.846100 -22.291500 -0.000108 -0.000004 7.566530 5.578340 -10.123900 -2.192480 -6.469440 -0.000000 -167.205000 -17.969000 0.240932 39.081100 -0.000007 -0.000012 -0.216142 0.489035 23.844600 40.985400 -0.000006 -0.000013 -7.380170 -0.846460 -64.478600 11.754300 -0.000000 0.000003 -0.000134 -0.001320 -16.627900 -2.192510 6.469440 -0.000001 173.031000 22.312300 -178.189000 -39.081100 -0.002282 -0.040193 -0.004370 0.018125 22.977900 -40.985400 0.000008 0.000006 -1.771410 1.132920 -65.407600 -11.754300 -0.000006 -0.000006 -0.004270 -0.054218 -18.778700
0.000000 0.000000 0.000000 0.000000 0.000000 -0.000000 -1.325890 91.675100 -0.479013 87.851300 -1.422480 6.865220 15.735700 0.000005 -0.000001 85.901900 83.390500 -85.230800 8.984550 -0.406207 -0.000000 5.425690 -0.956227 1.385860 16.377300 -0.000001 -0.000001 8.451580 -2.204800 1.101090 6.456720 -0.000001 -0.000000 1.918460 -1.114340 -1.935670 12.994200 -0.242716 4.980390 -90.195100 0.609079 -72.237000 5.348090 -0.000007 -0.000001 -61.791900 42.535000 -14.489900 24.328600 0.000019 0.000005 4.788980 7.233620 -33.637600 22.291600 -0.000001 0.000005 3.723520 5.638580 -14.008600 12.994500 -0.242716 -4.980390 87.826600 6.092310 -70.323400 -5.348130 -0.000001 -0.000004 -61.341900 29.170600 -16.861800 -24.328900 0.000322 -0.000009 -0.492329 -1.056660 -24.937700 -22.291500 -0.000108 -0.000004 8.140580 5.572740 -9.829280 -2.192480 -6.469440 -0.000000 -167.185000 -18.045800 0.249725 39.081100 -0.000007 -0.000012 -0.215950 0.487582 23.888900 40.985400 -0.000006 -0.000013 -7.374260 -0.947720 -64.511900 11.754300 -0.000000 0.000003 -0.000125 -0.001246 -16.625100 -2.192510 6.469440 -0.000001 173.059000 22.222100 -178.219000 -39.081100 -0.002282 -0.040193 -0.005744 0.021402 22.944200 -40.985400 0.000008 0.000006 -1.781620 1.215180 -65.341600 -11.754300 -0.000006 -0.000006 -0.004237 -0.053888 -18.765200
